<?xml version="1.0" encoding="utf-8"?>
<!-- Generator: Adobe Illustrator 25.3.1, SVG Export Plug-In . SVG Version: 6.00 Build 0)  -->
<svg version="1.1" id="レイヤー_1" xmlns="http://www.w3.org/2000/svg" xmlns:xlink="http://www.w3.org/1999/xlink" x="0px"
	 y="0px" viewBox="0 0 330.4 157.3" style="enable-background:new 0 0 330.4 157.3;" xml:space="preserve">
<style type="text/css">
	.st0{fill:#FFFFFF;}
</style>
<g id="レイヤー_2_1_">
	<g id="レイヤー_1-2">
		<path class="st0" d="M218.6,49.9l-3,0.5l-3.7-17.9l0,0c-0.5,0.9-1.5,2.9-3.1,6c-1.6,3.1-3.2,6.3-4.8,9.4h-2.5
			c-1.4-2.9-3-6.1-4.8-9.5c-1.7-3.4-2.8-5.4-3.1-5.9l0,0c-0.1,0.3-0.6,2.3-1.5,6.1c-0.9,3.8-1.8,7.7-2.6,11.8l-2.8-0.5
			c1.2-4.6,2.3-9.1,3.4-13.6c1.1-4.5,1.6-6.9,1.7-7.3l2.9-0.4c0.1,0.3,1,2,2.6,5.1c1.6,3.2,3.5,6.8,5.6,11h0.1
			c1.6-3.2,3.4-6.7,5.2-10.4l2.9-5.7l2.8,0.2c0,0.2,0.5,2.6,1.5,7S217.4,44.9,218.6,49.9z"/>
		<path class="st0" d="M245.4,49.3l-2.8,1.3c0-0.1-0.4-0.9-1.2-2.4s-1.7-3.3-2.9-5.7h-10.8c-1.3,2.5-2.3,4.4-3,5.8s-1.1,2.1-1.1,2.3
			l-2.4-1.2c0.3-0.6,1.6-3,3.9-7.3s4.7-8.9,7.1-13.6h2.4c2.4,4.8,4.8,9.4,7.1,13.8C244.1,46.8,245.3,49.1,245.4,49.3z M237.5,40.5
			c-0.6-1.3-1.3-2.7-2-4.1s-1.5-2.9-2.2-4.4h-0.1c-0.6,1.2-1.4,2.6-2.2,4.3s-1.6,3.1-2.1,4.2l0,0L237.5,40.5L237.5,40.5z"/>
		<path class="st0" d="M263.1,44.2c0,1-0.3,2-0.9,2.9c-0.6,0.8-1.4,1.5-2.4,2c-1,0.5-2,0.9-3.1,1.1c-1.3,0.3-2.6,0.4-3.9,0.4
			c-0.8,0-1.6,0-2.4-0.1l-1.4-0.1l-0.1-2.3l1.4,0.1c0.8,0.1,1.7,0.1,2.7,0.1c0.8,0,1.7-0.1,2.5-0.2c0.8-0.1,1.6-0.3,2.4-0.6
			c0.6-0.2,1.2-0.6,1.6-1.1c0.4-0.5,0.6-1.1,0.6-1.7c0-0.7-0.2-1.3-0.6-1.8c-0.5-0.6-1.2-1.1-1.9-1.4c-0.6-0.3-1.3-0.6-2.2-1
			c-0.8-0.3-1.7-0.7-2.5-1.1c-1-0.5-1.9-1.2-2.6-2.2c-0.5-0.8-0.8-1.7-0.8-2.6c0-0.9,0.2-1.8,0.7-2.5c0.5-0.7,1.1-1.3,1.9-1.8
			c0.9-0.5,1.8-0.9,2.9-1.1c1.2-0.3,2.5-0.4,3.8-0.4c0.8,0,1.5,0,2.3,0.1l1.3,0.1l0.2,2.3l-1.3-0.1c-0.8-0.1-1.7-0.1-2.9-0.1
			c-0.7,0-1.4,0.1-2.1,0.2c-0.7,0.1-1.3,0.3-1.9,0.6c-0.5,0.2-0.9,0.6-1.2,1c-0.3,0.4-0.5,1-0.5,1.5c0,0.5,0.2,1.1,0.5,1.5
			c0.6,0.6,1.2,1.1,2,1.5c0.5,0.3,1.2,0.6,2,0.9s1.6,0.7,2.4,1.1c1.1,0.5,2,1.2,2.7,2.2C262.8,42.2,263.1,43.2,263.1,44.2z"/>
		<path class="st0" d="M273.7,48.1h-4c0-0.6,0-1.6,0.1-3.1s0-3.6,0-6.3c0-1.1,0-2.5,0-4.3s0-3.6-0.1-5.5h4c0,1.4-0.1,3-0.1,4.8
			c0,1.8,0,3.3,0,4.5c0,2.9,0,5.2,0,6.8S273.6,47.5,273.7,48.1z"/>
		<path class="st0" d="M302.8,39.5c0,1.6-0.3,3.3-1,4.7c-0.6,1.4-1.5,2.6-2.6,3.6c-1.1,1-2.4,1.8-3.8,2.3c-2.8,0.9-5.8,0.9-8.6,0
			c-1.3-0.4-2.5-1.1-3.6-2c-1.2-1-2.2-2.2-2.9-3.7c-0.7-1.6-1.1-3.3-1.1-5c0-1.5,0.3-3,0.9-4.5c0.6-1.4,1.5-2.6,2.6-3.6
			c1.1-1,2.4-1.8,3.8-2.3c1.5-0.5,3-0.8,4.6-0.8c1.6,0,3.1,0.2,4.5,0.8c1.3,0.5,2.6,1.2,3.6,2.1c1.2,1,2.1,2.3,2.7,3.7
			C302.5,36.3,302.8,37.9,302.8,39.5z M299.7,39.8c0-1.4-0.3-2.8-0.8-4.1c-0.9-2.2-2.6-3.9-4.9-4.8c-1-0.3-2-0.5-3-0.5
			c-1,0-2.1,0.2-3,0.5c-0.9,0.3-1.8,0.9-2.6,1.5c-1,0.9-1.8,1.9-2.3,3.2c-1.1,2.6-1.1,5.4,0,8c0.9,2.1,2.7,3.7,4.8,4.5
			c2,0.7,4.1,0.7,6.1,0c0.9-0.3,1.8-0.8,2.6-1.5c0.9-0.8,1.7-1.8,2.2-2.9C299.4,42.5,299.7,41.1,299.7,39.8z"/>
		<path class="st0" d="M330.4,28.9c0,1.7,0,3.6-0.1,5.7s0,3.7,0,4.6c0,3,0,5.4,0,7.2s0,2.7,0,2.8l-2.4,1c-3.7-4.3-7.1-8.3-10.3-11.7
			c-3.2-3.5-5-5.5-5.5-6l0,0c0,2.8,0,6.3,0.1,10.5s0.1,6.5,0.1,7.2h-2.8c0-0.3,0-1.2,0-2.8s0-3.9,0-6.8c0-1.2,0-2.7,0-4.6
			s0-4-0.1-6.1l2.8-1.1l5.6,6.2c3.5,3.9,6.8,7.5,9.9,10.8l0,0c0-1.6,0-4.4-0.1-8.2s-0.1-6.7-0.1-8.6L330.4,28.9z"/>
		<path class="st0" d="M202.2,86h-1.6c-1.8,0-3.6-0.1-5.4-0.3c-1.3-0.2-2.6-0.5-3.8-1c-1.4-0.6-2.7-1.5-3.7-2.7
			c-0.8-1.1-1.3-2.4-1.2-3.8c0-1.5,0.5-3.1,1.4-4.3c1.1-1.4,2.5-2.4,4.1-3c1.1-0.5,2.3-0.8,3.6-1c1.3-0.2,2.6-0.3,3.9-0.3l-0.1-7.3
			h2.9c0,0.2,0,1.7,0,4.5s0,5.6,0,8.4c0,2.2,0,4.3,0,6.1C202.2,83.1,202.2,84.7,202.2,86z M199.4,74.8v-3c-1.1,0-2.3,0.1-3.4,0.3
			c-0.9,0.1-1.9,0.4-2.8,0.7c-1.1,0.4-2.1,1.1-2.8,2.1c-0.7,0.9-1,2-1,3.2c0,1,0.3,2,1,2.8c0.6,0.8,1.5,1.4,2.4,1.8
			c0.9,0.4,1.9,0.7,2.8,0.9c1.1,0.2,2.2,0.3,3.3,0.3h0.5c0-0.1,0-0.9,0-2.4S199.4,77.8,199.4,74.8L199.4,74.8z"/>
		<path class="st0" d="M223.1,77.1H210c0,1.1,0.3,2.2,0.8,3.1c0.6,1,1.4,1.8,2.5,2.3c0.8,0.4,1.6,0.7,2.4,0.9
			c1.1,0.2,2.2,0.3,3.2,0.3c0.7,0,1.3,0,1.9,0l1.1-0.1l-0.3,2.1l-1,0.1c-0.6,0-1.2,0-1.9,0c-1.7,0-3.4-0.2-5.1-0.7
			c-1.3-0.4-2.5-1-3.6-1.8c-0.8-0.7-1.5-1.5-2-2.5c-0.6-1-0.8-2.2-0.8-3.4c0-1.1,0.2-2.2,0.6-3.3c0.4-1,1.1-1.9,1.9-2.7
			c0.8-0.7,1.7-1.3,2.7-1.7c1.1-0.4,2.2-0.6,3.3-0.6c1,0,2,0.1,3,0.4c0.9,0.3,1.6,0.7,2.3,1.4c0.7,0.7,1.3,1.6,1.6,2.5
			C222.9,74.7,223.1,75.9,223.1,77.1z M220.3,75.3c-0.1-1.2-0.7-2.3-1.5-3.1c-0.9-0.8-2.1-1.2-3.3-1.1c-1.2,0-2.4,0.4-3.4,1.1
			c-0.9,0.8-1.6,1.9-1.9,3.1H220.3z"/>
		<path class="st0" d="M206,102.2h-2.4h-6.5c0,2.2,0,3.8-0.1,5s0,2.7,0,4.6s0,3.8,0,5.7s0,3.2,0.1,3.8h-3c0-0.6,0.1-1.9,0.1-3.9
			s0-3.9,0-5.8v-4.5c0-1.1,0-2.8-0.1-5c-2.6,0-4.7,0-6.3,0h-2.6V100h4.6h5.7h7.4h3.2V102.2z"/>
		<path class="st0" d="M224.9,121.2h-2.4h-5.6h-4.2h-3.2c0-0.6,0-2,0.1-4s0-4.2,0-6.3c0-1.2,0-2.8,0-4.8s0-4-0.1-6.1h3.2h4h5.7h2.4
			v2.2h-2.3c-1.4,0-3.1,0-5.2,0h-4.8c0,1.2,0,2.4,0,3.6s0,2.3,0,3.4h3.9h5.7h2.7v2.2h-3h-5.2h-4.1c0,2,0,3.6,0,4.8s0,2.2,0,3h2.6
			h3.3h4.6h2.1L224.9,121.2z"/>
		<path class="st0" d="M253.2,120.4l-2.8,1.3l-1.2-2.4c-0.7-1.5-1.7-3.3-2.9-5.7h-10.8l-3,5.8l-1.1,2.3l-2.4-1.1
			c0.3-0.6,1.6-3,3.9-7.3s4.7-8.8,7.1-13.6h2.4c2.4,4.8,4.8,9.4,7.1,13.8C251.9,117.9,253.1,120.2,253.2,120.4z M245.3,111.7
			c-0.6-1.3-1.3-2.7-2-4.1l-2.3-4.4h-0.1c-0.6,1.2-1.3,2.6-2.2,4.3s-1.6,3.1-2.1,4.2L245.3,111.7L245.3,111.7z"/>
		<path class="st0" d="M156.6,1V0H0.3v0.6H0v156.3h0.3v0.2h153.2v0.2h3.9V1H156.6z M153.5,77h-71l16.7-16.7l0,0l0,0l0.3-0.3h54
			L153.5,77z M153.5,39.3h-33.3L153.5,6L153.5,39.3z M118.2,37.3V3.9h33.4L118.2,37.3z M115.9,39.6L99.3,56.2V3.9h16.7L115.9,39.6z
			 M97,58.4L80.4,75.1V3.9H97V58.4z M76.5,77H3.9V3.9h72.6V77z M3.9,80.9h70.7L58.3,97.1H3.9V80.9z M56.1,99.4l-16.5,16.4H3.9V99.4
			H56.1z M37.4,118.1L3.9,151.6v-33.5H37.4z M39.7,119.8v33.4H6.3L39.7,119.8z M41.9,117.6l15.8-15.8v51.5H41.9V117.6z M60,99.5
			L76.5,83v70.2H60V99.5z M101.8,57.7L118,41.6h35.5v16.2L101.8,57.7z M80.4,153.2V80.9h73.1v72.4H80.4z"/>
	</g>
</g>
</svg>
