<?xml version="1.0" encoding="utf-8"?>
<!-- Generator: Adobe Illustrator 25.3.1, SVG Export Plug-In . SVG Version: 6.00 Build 0)  -->
<svg version="1.1" id="レイヤー_1" xmlns="http://www.w3.org/2000/svg" xmlns:xlink="http://www.w3.org/1999/xlink" x="0px"
	 y="0px" viewBox="0 0 595.28 841.89" style="enable-background:new 0 0 595.28 841.89;" xml:space="preserve">
<style type="text/css">
	.st0{fill:#939B5D;}
	.st1{fill:#FFFFFF;}
</style>
<rect x="188.45" y="320.35" class="st0" width="153.17" height="152.65"/>
<g>
	<path class="st1" d="M345.12,319.03v-0.99H188.83v0.57h-0.32v156.28h0.32v0.25H342v0.17h3.89V319.03H345.12z M342,395h-70.96
		l16.69-16.69h0.05v-0.05l0.27-0.27H342V395z M342,357.34h-33.3l33.3-33.3V357.34z M306.7,355.3v-33.38h33.38L306.7,355.3z
		 M304.45,357.55l-16.67,16.67v-52.3h16.67V357.55z M285.53,376.47l-16.61,16.61v-71.16h16.61V376.47z M265.03,395h-72.63v-73.08
		h72.63V395z M192.41,398.89h70.7l-16.28,16.28h-0.58h-53.84V398.89z M244.58,417.42l-16.45,16.45h-35.72v-16.45H244.58z
		 M225.88,436.12l-33.47,33.47v-33.47H225.88z M228.18,437.86v33.39h-33.39L228.18,437.86z M230.43,435.61l15.82-15.82v51.46h-15.82
		V435.61z M248.5,417.54l16.53-16.53v70.25H248.5V417.54z M290.3,375.74l16.15-16.15H342v16.15H290.3z M268.92,471.25v-72.36H342
		v72.36H268.92z"/>
</g>
</svg>
